<mxfile host="app.diagrams.net" modified="2021-07-22T04:57:49.315Z" agent="5.0 (Macintosh; Intel Mac OS X 10_15_7) AppleWebKit/537.36 (KHTML, like Gecko) Chrome/91.0.4472.114 Safari/537.36" etag="Bp-Mr4yIdQn_Pa4V3OD6" version="14.8.6" type="github">
  <diagram id="dvbRenTVawbNXo9HCF1T" name="Page-1">
    <mxGraphModel dx="908" dy="621" grid="1" gridSize="10" guides="1" tooltips="1" connect="1" arrows="1" fold="1" page="1" pageScale="1" pageWidth="827" pageHeight="1169" math="0" shadow="0">
      <root>
        <mxCell id="0" />
        <mxCell id="1" parent="0" />
        <UserObject label="" lucidchartObjectId="Yu5MhR-oMSno" id="hvKdQIk6os5S7WxXvzKx-1">
          <mxCell style="html=1;overflow=block;blockSpacing=1;whiteSpace=wrap;;whiteSpace=wrap;fontSize=13;spacing=0;strokeColor=#f2f2f2;strokeOpacity=100;fillOpacity=100;rounded=1;absoluteArcSize=1;arcSize=12;fillColor=#ced4db;strokeWidth=0.8;" vertex="1" parent="1">
            <mxGeometry x="510" y="307" width="30" height="532" as="geometry" />
          </mxCell>
        </UserObject>
        <mxCell id="hvKdQIk6os5S7WxXvzKx-2" value="FrontEnd/ReactJS/&lt;br&gt;Android/MCS" style="html=1;overflow=block;blockSpacing=1;whiteSpace=wrap;whiteSpace=wrap;fontSize=13.3;fontColor=#333333;fontStyle=6;align=center;whiteSpace=wrap;align=left;spacing=0;strokeOpacity=0;fillOpacity=100;rounded=1;absoluteArcSize=1;arcSize=12;fillColor=#ffaf28;strokeWidth=0.8;" vertex="1" parent="1">
          <mxGeometry x="453" y="165" width="143" height="90" as="geometry" />
        </mxCell>
        <UserObject label="Pilot" lucidchartObjectId="Yu5MdgyV5tNR" id="hvKdQIk6os5S7WxXvzKx-3">
          <mxCell style="html=1;overflow=block;blockSpacing=1;whiteSpace=wrap;shape=umlActor;labelPosition=center;verticalLabelPosition=bottom;verticalAlign=top;whiteSpace=nowrap;whiteSpace=wrap;fontSize=13.3;fontColor=#333333;fontStyle=2;align=center;spacing=0;strokeColor=#333333;strokeOpacity=100;fillOpacity=100;rounded=1;absoluteArcSize=1;arcSize=12;fillColor=#ffffff;strokeWidth=0.8;" vertex="1" parent="1">
            <mxGeometry x="258" y="193" width="60" height="135" as="geometry" />
          </mxCell>
        </UserObject>
        <UserObject label="" lucidchartObjectId="Yu5Migy3NWk_" id="hvKdQIk6os5S7WxXvzKx-4">
          <mxCell style="html=1;jettySize=18;whiteSpace=wrap;fontSize=13;strokeColor=#333333;strokeOpacity=100;dashed=1;fixDash=1;dashPattern=16 6;strokeWidth=0.8;rounded=1;arcSize=10;edgeStyle=orthogonalEdgeStyle;startArrow=none;;endArrow=none;;exitX=0.5;exitY=0.532;exitPerimeter=0;" edge="1" parent="1" source="hvKdQIk6os5S7WxXvzKx-3">
            <mxGeometry width="100" height="100" relative="1" as="geometry">
              <Array as="points" />
              <mxPoint x="290" y="872" as="targetPoint" />
            </mxGeometry>
          </mxCell>
        </UserObject>
        <UserObject label="" lucidchartObjectId="Yu5M0A2JVvTe" id="hvKdQIk6os5S7WxXvzKx-5">
          <mxCell style="html=1;jettySize=18;whiteSpace=wrap;fontSize=13;strokeColor=#333333;strokeOpacity=100;strokeWidth=0.8;rounded=1;arcSize=10;edgeStyle=orthogonalEdgeStyle;startArrow=none;;endArrow=block;endFill=1;;entryX=-0.012;entryY=0.121;entryPerimeter=0;" edge="1" parent="1" target="hvKdQIk6os5S7WxXvzKx-1">
            <mxGeometry width="100" height="100" relative="1" as="geometry">
              <Array as="points" />
              <mxPoint x="290" y="372" as="sourcePoint" />
            </mxGeometry>
          </mxCell>
        </UserObject>
        <mxCell id="hvKdQIk6os5S7WxXvzKx-6" value="" style="text;html=1;resizable=0;labelBackgroundColor=#ffffff;align=center;verticalAlign=middle;;fontSize=13;" vertex="1" parent="hvKdQIk6os5S7WxXvzKx-5">
          <mxGeometry x="0.12220520928440659" relative="1" as="geometry" />
        </mxCell>
        <mxCell id="hvKdQIk6os5S7WxXvzKx-7" value="GET mission/flights" style="text;html=1;resizable=0;labelBackgroundColor=#ffffff;align=center;verticalAlign=middle;fontColor=#333333;;fontSize=15.2;" vertex="1" parent="hvKdQIk6os5S7WxXvzKx-5">
          <mxGeometry x="-0.10663334830521332" relative="1" as="geometry" />
        </mxCell>
      </root>
    </mxGraphModel>
  </diagram>
</mxfile>
